PathFileType	4	(X/Y/Z)	anato.trc
DataRate	CameraRate	NumFrames	NumMarkers	Units	OrigDataRate	OrigDataStartFrame	OrigNumFrames
100.0	100.0	8	17	mm	100.0	155	618
Frame#	Time	STER			XIPH			T10			T1			CLAV_SC			CLAV_AC			SCAP_AA			SCAP_CP			SCAP_TS			SCAP_IA			DELT			ARMl			EPICm			EPICl			LARM_elb			STYLr			STYLu		
		X1	Y1	Z1	X2	Y2	Z2	X3	Y3	Z3	X4	Y4	Z4	X5	Y5	Z5	X6	Y6	Z6	X7	Y7	Z7	X8	Y8	Z8	X9	Y9	Z9	X10	Y10	Z10	X11	Y11	Z11	X12	Y12	Z12	X13	Y13	Z13	X14	Y14	Z14	X15	Y15	Z15	X16	Y16	Z16	X17	Y17	Z17

155	1.54	377.0472106933594	42.6917839050293	1434.4259033203125	385.7442626953125	90.8450698852539	1275.677490234375	373.4388732910156	-142.80628967285156	1236.74267578125	372.795654296875	-119.02214813232422	1478.2437744140625	412.32281494140625	33.00724792480469	1443.0623779296875	567.35400390625	-40.58403396606445	1465.750732421875	573.787841796875	-86.86617279052734	1452.1593017578125	516.9760131835938	-92.67607879638672	1481.337158203125	504.515625	-150.80648803710938	1428.2469482421875	486.1925048828125	-163.6361083984375	1284.976806640625	650.85400390625	-69.34098815917969	1322.54296875	669.54052734375	-82.07518005371094	1277.3890380859375	672.1222534179688	-29.8641414642334	1117.9422607421875	735.8074340820312	-89.04351806640625	1175.8369140625	687.490966796875	-73.51354217529297	1111.39013671875	924.463623046875	31.652315139770508	1002.4450073242188	866.0513916015625	1.8573858737945557	953.3495483398438
156	1.55	377.0419921875	42.56501007080078	1434.4720458984375	386.2137451171875	90.71746826171875	1275.887451171875	373.38970947265625	-142.8781280517578	1236.71142578125	372.7593994140625	-119.12213897705078	1478.2393798828125	412.3267517089844	32.89067077636719	1443.087890625	567.3335571289062	-40.72635269165039	1465.7022705078125	573.7274780273438	-87.00497436523438	1452.1177978515625	516.9634399414062	-92.80962371826172	1481.318603515625	504.4762878417969	-150.9345245361328	1428.1483154296875	486.1025695800781	-163.74021911621094	1284.9375	650.7785034179688	-69.45291900634766	1322.44482421875	669.50439453125	-82.2010726928711	1277.36279296875	672.2396850585938	-29.8969783782959	1117.9166259765625	735.7864990234375	-89.15692138671875	1175.813232421875	687.4713134765625	-73.61211395263672	1111.3701171875	924.4524536132812	31.546754837036133	1002.4558715820312	866.0437622070312	1.7669975757598877	953.372314453125
157	1.56	377.0080261230469	42.444862365722656	1434.4854736328125	385.6728820800781	90.6392593383789	1275.675537109375	373.3451232910156	-142.95016479492188	1236.6917724609375	372.7510681152344	-119.25153350830078	1478.2237548828125	412.2793884277344	32.750675201416016	1443.0914306640625	567.3143920898438	-40.87192153930664	1465.6707763671875	573.7351684570312	-87.14653778076172	1452.100830078125	516.9810180664062	-92.9308090209961	1481.296142578125	504.4739074707031	-151.05889892578125	1428.1571044921875	486.0274963378906	-163.82965087890625	1284.9200439453125	650.7445678710938	-69.59735107421875	1322.39111328125	669.4839477539062	-82.31005859375	1277.3271484375	672.0042724609375	-30.09330177307129	1117.813232421875	735.7569580078125	-89.26703643798828	1175.77734375	687.4290771484375	-73.68172454833984	1111.33447265625	924.4358520507812	31.456098556518555	1002.3523559570312	865.968505859375	1.700171947479248	953.36474609375
158	1.57	376.9916687011719	42.358272552490234	1434.441162109375	385.69036865234375	90.55106353759766	1275.6810302734375	373.31829833984375	-143.00865173339844	1236.677734375	372.73919677734375	-119.34489440917969	1478.2286376953125	412.21966552734375	32.62389373779297	1443.086181640625	567.3097534179688	-41.01211929321289	1465.66162109375	573.7272338867188	-87.2467041015625	1452.0601806640625	516.93701171875	-93.07917022705078	1481.27001953125	504.5382080078125	-151.1771240234375	1428.0343017578125	485.8417663574219	-163.94522094726562	1284.96142578125	650.6353759765625	-69.71166229248047	1322.2974853515625	669.4546508789062	-82.44999694824219	1277.29443359375	670.9494018554688	-30.715457916259766	1117.4957275390625	735.739990234375	-89.37158966064453	1175.7572021484375	687.4368896484375	-73.80249786376953	1111.30859375	924.4423828125	31.35922622680664	1002.327880859375	866.0067138671875	1.612200140953064	953.3331909179688
159	1.58	377.0675964355469	42.29511642456055	1434.2642822265625	385.6673889160156	90.45342254638672	1275.6806640625	373.27459716796875	-143.1158905029297	1236.6646728515625	372.7024841308594	-119.47767639160156	1478.1920166015625	412.3162841796875	32.559043884277344	1443.0689697265625	567.3126220703125	-41.15083694458008	1465.6201171875	573.6255493164062	-87.34942626953125	1451.9747314453125	516.9403686523438	-93.19185638427734	1481.2689208984375	504.4884338378906	-151.28973388671875	1428.0130615234375	485.8177490234375	-164.0350799560547	1284.8802490234375	650.5985107421875	-69.8614273071289	1322.2430419921875	669.4179077148438	-82.57352447509766	1277.251708984375	670.9868774414062	-30.777368545532227	1117.367919921875	735.7408447265625	-89.48482513427734	1175.719970703125	687.4251708984375	-73.85565948486328	1111.3033447265625	924.4569702148438	31.261249542236328	1002.3617553710938	866.0234985351562	1.5257153511047363	953.3599853515625
160	1.59	377.03765869140625	42.124412536621094	1434.41259765625	385.6590270996094	90.35086822509766	1275.696533203125	373.2547302246094	-143.16827392578125	1236.64892578125	372.69256591796875	-119.57057189941406	1478.1834716796875	412.2840270996094	32.42405319213867	1443.0626220703125	567.27978515625	-41.293479919433594	1465.607177734375	573.6250610351562	-87.478515625	1451.945068359375	516.9203491210938	-93.30844116210938	1481.2144775390625	504.3670959472656	-151.40975952148438	1427.9957275390625	485.8605041503906	-164.12550354003906	1284.7725830078125	650.5160522460938	-69.98443603515625	1322.1280517578125	669.412841796875	-82.68950653076172	1277.2186279296875	671.0206909179688	-29.510482788085938	1117.1219482421875	735.7306518554688	-89.59524536132812	1175.69873046875	687.4082641601562	-73.95060729980469	1111.251953125	924.4639892578125	31.141590118408203	1002.3596801757812	866.0062866210938	1.4326865673065186	953.3334350585938
161	1.6	377.0420837402344	41.99967575073242	1434.4049072265625	385.60150146484375	90.25968170166016	1275.7049560546875	373.2289123535156	-143.26268005371094	1236.628173828125	372.69781494140625	-119.68496704101562	1478.169677734375	412.357421875	32.34379196166992	1443.0423583984375	567.285888671875	-41.42519760131836	1465.6513671875	573.6480712890625	-87.65216064453125	1451.960693359375	516.921630859375	-93.45101928710938	1481.190185546875	504.3699645996094	-151.5281219482422	1427.9500732421875	485.7832946777344	-164.21481323242188	1284.785400390625	650.462890625	-70.0839614868164	1322.062744140625	669.4097290039062	-82.81629180908203	1277.2034912109375	671.3232421875	-30.772411346435547	1117.545654296875	735.71923828125	-89.69816589355469	1175.666259765625	687.4013061523438	-74.04127502441406	1111.2386474609375	924.476806640625	31.057687759399414	1002.2913208007812	866.037841796875	1.3187310695648193	953.3276977539062
162	1.61	377.0722351074219	41.89665603637695	1434.408203125	385.61505126953125	90.18485260009766	1275.7083740234375	373.1916198730469	-143.32797241210938	1236.5985107421875	372.6745300292969	-119.80401611328125	1478.145263671875	412.1738586425781	32.224178314208984	1442.834228515625	567.271728515625	-41.557071685791016	1465.5953369140625	573.67529296875	-87.79967498779297	1451.9298095703125	516.9370727539062	-93.5682144165039	1481.1796875	504.26123046875	-151.65184020996094	1427.9488525390625	485.7663879394531	-164.302978515625	1284.7388916015625	650.4536743164062	-70.1895751953125	1322.0489501953125	669.3969116210938	-82.9385986328125	1277.1639404296875	670.993896484375	-31.03314781188965	1117.4150390625	735.7279052734375	-89.80923461914062	1175.6363525390625	687.4093017578125	-74.12663269042969	1111.2177734375	924.5654907226562	30.93547821044922	1002.3092651367188	866.0346069335938	1.2144228219985962	953.3084106445312
